<?xml version="1.0" standalone="no"?>
<!DOCTYPE svg PUBLIC "-//W3C//DTD SVG 20010904//EN"
 "http://www.w3.org/TR/2001/REC-SVG-20010904/DTD/svg10.dtd">
<svg version="1.0" xmlns="http://www.w3.org/2000/svg"
 width="920.000000pt" height="800.000000pt" viewBox="0 0 920.000000 800.000000"
 preserveAspectRatio="xMidYMid meet">

<g transform="translate(0.000000,800.000000) scale(0.100000,-0.100000)"
fill="#000000" stroke="none">
<path d="M2715 6985 c-158 -30 -271 -90 -391 -210 -77 -76 -98 -105 -137 -185
-91 -184 -82 84 -85 -2550 -2 -2527 -5 -2421 51 -2558 41 -103 88 -172 172
-257 118 -117 241 -183 394 -211 112 -20 3650 -20 3762 0 153 28 276 94 394
211 84 85 131 154 172 257 54 132 52 71 53 2043 l0 1830 -823 823 -822 822
-1335 -1 c-1059 -1 -1349 -4 -1405 -14z m2385 -1235 l0 -750 750 0 750 0 0
-1652 c0 -1641 -1 -1653 -21 -1698 -27 -60 -64 -98 -124 -126 l-50 -24 -1805
0 c-1794 0 -1805 1 -1850 21 -60 27 -98 64 -126 124 l-24 50 0 2305 c0 2297 1
2305 21 2350 27 60 64 98 124 126 l50 24 1153 0 1152 0 0 -750z m825 70 l320
-320 -323 0 -322 0 0 320 c0 176 1 320 3 320 1 0 146 -144 322 -320z"/>
<path d="M3600 3750 l0 -250 1000 0 1000 0 0 250 0 250 -1000 0 -1000 0 0
-250z"/>
<path d="M3600 2750 l0 -250 750 0 750 0 0 250 0 250 -750 0 -750 0 0 -250z"/>
</g>
</svg>
