<?xml version="1.0" standalone="no"?>
<!DOCTYPE svg PUBLIC "-//W3C//DTD SVG 20010904//EN"
 "http://www.w3.org/TR/2001/REC-SVG-20010904/DTD/svg10.dtd">
<svg version="1.0" xmlns="http://www.w3.org/2000/svg"
 width="920.000000pt" height="512.000000pt" viewBox="0 0 920.000000 512.000000"
 preserveAspectRatio="xMidYMid meet">

<g transform="translate(0.000000,512.000000) scale(0.100000,-0.100000)"
fill="#000000" stroke="none">
<path d="M2270 4701 c-90 -28 -159 -87 -199 -171 l-26 -55 0 -1970 0 -1970 25
-50 c33 -68 99 -129 166 -154 l55 -21 2067 2 2067 3 46 23 c56 27 114 83 141
136 11 21 31 100 45 175 13 75 76 415 139 756 63 341 153 825 199 1075 46 250
96 518 110 595 63 334 63 344 26 430 -44 100 -117 152 -253 180 l-28 5 0 180
c0 157 -3 186 -21 235 -28 74 -100 146 -174 174 -56 21 -61 21 -1415 21
l-1359 0 -34 43 c-19 23 -64 89 -102 146 -73 112 -124 169 -177 198 -31 17
-76 18 -653 20 -341 1 -631 -2 -645 -6z m1210 -201 c10 -5 56 -65 101 -132
107 -161 143 -205 198 -239 l45 -29 1355 0 c921 0 1368 -3 1394 -11 68 -18 77
-47 77 -236 l0 -163 -1927 -2 -1928 -3 -49 -23 c-71 -32 -109 -64 -144 -119
-26 -41 -36 -78 -70 -263 -22 -118 -95 -516 -163 -883 l-124 -668 -3 1308 c-2
719 0 1331 3 1360 7 56 38 98 78 106 49 10 1139 7 1157 -3z m3441 -1049 c19
-20 29 -40 29 -60 0 -17 -108 -614 -240 -1328 -132 -714 -247 -1338 -256
-1388 -20 -112 -29 -130 -69 -150 -29 -13 -251 -15 -2045 -15 -1774 0 -2014 2
-2040 15 -35 18 -50 43 -50 82 0 24 122 692 380 2078 33 176 77 417 99 535 36
195 41 216 66 237 l26 23 2035 0 2036 0 29 -29z"/>
</g>
</svg>
